<?xml version="1.0" encoding="UTF-8" standalone="no"?>
<!-- Created with Inkscape (http://www.inkscape.org/) -->

<svg
   xmlns:osb="http://www.openswatchbook.org/uri/2009/osb"
   xmlns:dc="http://purl.org/dc/elements/1.1/"
   xmlns:cc="http://creativecommons.org/ns#"
   xmlns:rdf="http://www.w3.org/1999/02/22-rdf-syntax-ns#"
   xmlns:svg="http://www.w3.org/2000/svg"
   xmlns="http://www.w3.org/2000/svg"
   xmlns:sodipodi="http://sodipodi.sourceforge.net/DTD/sodipodi-0.dtd"
   xmlns:inkscape="http://www.inkscape.org/namespaces/inkscape"
   width="297mm"
   height="210mm"
   viewBox="0 0 297 210"
   version="1.1"
   id="svg8"
   inkscape:version="0.92.5 (2060ec1f9f, 2020-04-08)"
   sodipodi:docname="AWlogowhite.svg">
  <defs
     id="defs2">
    <linearGradient
       osb:paint="gradient"
       id="linearGradient5177">
      <stop
         id="stop5173"
         offset="0"
         style="stop-color:#000000;stop-opacity:1;" />
      <stop
         id="stop5175"
         offset="1"
         style="stop-color:#000000;stop-opacity:0;" />
    </linearGradient>
  </defs>
  <sodipodi:namedview
     id="base"
     pagecolor="#ffffff"
     bordercolor="#666666"
     borderopacity="1.0"
     inkscape:pageopacity="0.0"
     inkscape:pageshadow="2"
     inkscape:zoom="0.35"
     inkscape:cx="-64.285714"
     inkscape:cy="560"
     inkscape:document-units="mm"
     inkscape:current-layer="layer1"
     showgrid="false"
     inkscape:window-width="1213"
     inkscape:window-height="1008"
     inkscape:window-x="-7"
     inkscape:window-y="0"
     inkscape:window-maximized="0" />
  <metadata
     id="metadata5">
    <rdf:RDF>
      <cc:Work
         rdf:about="">
        <dc:format>image/svg+xml</dc:format>
        <dc:type
           rdf:resource="http://purl.org/dc/dcmitype/StillImage" />
        <dc:title></dc:title>
      </cc:Work>
    </rdf:RDF>
  </metadata>
  <g
     inkscape:label="Layer 1"
     inkscape:groupmode="layer"
     id="layer1"
     transform="translate(0,-87)">
    <g
       id="layer1-4"
       inkscape:label="Layer 1"
       transform="matrix(2.3608302,0,0,2.3608302,-107.04188,16.958975)"
       style="fill:#ffffff;fill-opacity:1;stroke:#ffffff;stroke-opacity:1">
      <g
         transform="translate(-1.5119033,-20.410715)"
         inkscape:label="Layer 1"
         id="layer1-3"
         style="fill:#ffffff;fill-opacity:1;stroke:#ffffff;stroke-opacity:1">
        <g
           style="display:inline;fill:#ffffff;fill-opacity:1;stroke:#ffffff;stroke-opacity:1"
           inkscape:label="Layer 2"
           id="layer8"
           transform="translate(2.3966014,-29.251582)">
          <path
             inkscape:connector-curvature="0"
             id="path5220"
             d="M 83.207684,91.483097 54.208941,125.34615 h 8.559305 l 18.94273,-22.54419 z"
             style="fill:#ffffff;fill-opacity:1;stroke:#ffffff;stroke-width:0.26458332px;stroke-linecap:butt;stroke-linejoin:miter;stroke-opacity:1" />
          <path
             inkscape:connector-curvature="0"
             id="path5222"
             d="M 101.4956,125.43969 83.207682,91.483097 81.710976,102.80196 93.310473,125.62678 Z"
             style="fill:#ffffff;fill-opacity:1;stroke:#ffffff;stroke-width:0.26458332px;stroke-linecap:butt;stroke-linejoin:miter;stroke-opacity:1" />
          <path
             inkscape:connector-curvature="0"
             id="path5224"
             d="m 72.637175,113.88696 14.592917,-0.0935 2.151517,4.30304 -20.486208,-0.0935 z"
             style="fill:#ffffff;fill-opacity:1;stroke:#ffffff;stroke-width:0.26458332px;stroke-linecap:butt;stroke-linejoin:miter;stroke-opacity:1" />
          <path
             inkscape:connector-curvature="0"
             id="path5226"
             d="m 87.685339,91.703444 h 7.988686 l 12.300045,21.366566 12.93406,-22.824817 12.42685,22.698017 13.31447,-21.429972 h 7.73508 l -21.30317,34.237222 -12.36344,-22.5712 -12.68045,22.69801 z"
             style="fill:#ffffff;fill-opacity:1;stroke:#ffffff;stroke-width:0.26458332px;stroke-linecap:butt;stroke-linejoin:miter;stroke-opacity:1" />
          <path
             inkscape:connector-curvature="0"
             id="path5228"
             d="m 46.244388,132.66766 h 2.622682 v 9.95274 c 0,0 0.650068,3.36242 3.967649,3.38483 3.317582,0.0224 3.967647,-3.56416 3.967647,-3.56416 v -9.68375 h 2.577851 v 9.54926 c 0,0 -0.336243,5.67126 -6.343753,5.96267 -6.007513,0.29141 -6.679996,-5.73851 -6.679996,-5.73851 z"
             style="fill:#ffffff;fill-opacity:1;stroke:#ffffff;stroke-width:0.26458332px;stroke-linecap:butt;stroke-linejoin:miter;stroke-opacity:1" />
          <path
             inkscape:connector-curvature="0"
             id="path5230"
             d="m 67.920745,148.02268 h 2.533017 v -11.18563 l 8.809525,11.27529 h 2.824427 v -15.55676 h -2.645101 v 11.67878 L 70.386516,132.57799 H 67.83108 Z"
             style="fill:#ffffff;fill-opacity:1;stroke:#ffffff;stroke-width:0.26458332px;stroke-linecap:butt;stroke-linejoin:miter;stroke-opacity:1" />
          <path
             inkscape:connector-curvature="0"
             id="path5232"
             d="m 90.942066,132.69007 h 2.689932 v 15.44469 h -2.689932 z"
             style="fill:#ffffff;fill-opacity:1;stroke:#ffffff;stroke-width:0.26458332px;stroke-linecap:butt;stroke-linejoin:miter;stroke-opacity:1" />
          <path
             inkscape:connector-curvature="0"
             id="path5240"
             d="m 118.67077,149.25556 -1.36738,-1.86053 c 0,0 -0.78457,1.30013 -2.71235,1.45704 -1.92778,0.15692 -2.19678,-1.27771 -2.19678,-1.27771 l -2.60026,0.58281 c 0,0 1.21047,3.29517 4.66254,2.98135 3.45208,-0.31383 4.21423,-1.88296 4.21423,-1.88296 z"
             style="fill:#ffffff;fill-opacity:1;stroke:#ffffff;stroke-width:0.26458332px;stroke-linecap:butt;stroke-linejoin:miter;stroke-opacity:1" />
          <path
             inkscape:connector-curvature="0"
             id="path5242"
             d="m 112.39426,147.57436 c 0,0 5.46953,-1.50188 5.08845,-7.3749 h -2.5106 c 0,0 0.31383,5.69369 -5.53677,5.69369 l 0.35866,2.26402"
             style="fill:#ffffff;fill-opacity:1;stroke:#ffffff;stroke-width:0.26458332px;stroke-linecap:butt;stroke-linejoin:miter;stroke-opacity:1" />
          <path
             inkscape:connector-curvature="0"
             id="path5244"
             d="m 117.48271,140.19946 c 0,0 0.17933,-7.57663 -8.04737,-7.84563 v 2.2192 c 0,0 5.37985,0.1569 5.53677,5.62643"
             style="fill:#ffffff;fill-opacity:1;stroke:#ffffff;stroke-width:0.26458332px;stroke-linecap:butt;stroke-linejoin:miter;stroke-opacity:1" />
          <path
             inkscape:connector-curvature="0"
             id="path5246"
             d="m 109.43534,132.35383 c 0,0 -7.84563,-0.0224 -8.00254,7.9353 h 2.53302 c 0,0 -0.1345,-5.46952 5.46952,-5.7161"
             style="fill:#ffffff;fill-opacity:1;stroke:#ffffff;stroke-width:0.26458332px;stroke-linecap:butt;stroke-linejoin:miter;stroke-opacity:1" />
          <path
             inkscape:connector-curvature="0"
             id="path5254"
             d="m 101.4328,140.28913 h 2.53302 c 0,0 -0.20175,5.51435 5.46952,5.60402 l 0.35866,2.26402 c 0,0 -7.93529,0.58283 -8.3612,-7.86804 z"
             style="fill:#ffffff;fill-opacity:1;stroke:#ffffff;stroke-width:0.26458332px;stroke-linecap:butt;stroke-linejoin:miter;stroke-opacity:1" />
          <path
             inkscape:connector-curvature="0"
             id="path5256"
             d="m 125.28351,132.73491 h 2.48819 v 9.59408 c 0,0 0.53799,3.74349 3.92281,3.60899 3.38483,-0.13449 4.0349,-2.89167 4.12456,-4.07973 0.0897,-1.18805 0,-9.14576 0,-9.14576 h 2.44336 v 9.59409 c 0,0 -0.0448,5.55918 -6.11959,6.00751 -6.07476,0.44832 -6.83691,-5.69369 -6.83691,-5.69369 z"
             style="fill:#ffffff;fill-opacity:1;stroke:#ffffff;stroke-width:0.26458332px;stroke-linecap:butt;stroke-linejoin:miter;stroke-opacity:1" />
          <path
             inkscape:connector-curvature="0"
             id="path5260"
             d="m 146.82537,132.66766 h 10.75973 v 2.35369 h -8.22671 v 4.19181 h 7.41973 v 2.24161 h -7.3749 v 4.28147 h 8.4957 v 2.33127 h -11.16321 z"
             style="fill:#ffffff;fill-opacity:1;stroke:#ffffff;stroke-width:0.26458332px;stroke-linecap:butt;stroke-linejoin:miter;stroke-opacity:1" />
          <circle
             r="1.5803341"
             cy="146.73376"
             cx="166.74207"
             id="path5264"
             style="opacity:1;fill:#ffffff;fill-opacity:1;fill-rule:nonzero;stroke-width:0.29374999;stroke:#ffffff;stroke-opacity:1" />
        </g>
      </g>
    </g>
  </g>
</svg>
